<?xml version="1.0" standalone="no"?>
<!DOCTYPE svg PUBLIC "-//W3C//DTD SVG 20010904//EN"
 "http://www.w3.org/TR/2001/REC-SVG-20010904/DTD/svg10.dtd">
<svg version="1.0" xmlns="http://www.w3.org/2000/svg"
 width="512.000000pt" height="512.000000pt" viewBox="0 0 512.000000 512.000000"
 preserveAspectRatio="xMidYMid meet">
<metadata>
Created by potrace 1.14, written by Peter Selinger 2001-2017
</metadata>
<g transform="translate(0.000000,512.000000) scale(0.100000,-0.100000)"
fill="#000000" stroke="none">
<path d="M2169 3810 c-57 -10 -113 -58 -239 -208 -53 -63 -102 -95 -225 -146
-212 -88 -246 -133 -260 -345 -9 -149 -25 -198 -109 -338 -114 -189 -114 -239
3 -431 80 -132 96 -183 106 -327 15 -221 47 -263 268 -355 122 -51 162 -77
218 -143 78 -92 152 -167 187 -189 28 -17 49 -21 113 -20 43 0 103 8 131 16
112 31 137 36 198 36 61 0 85 -5 199 -37 29 -9 88 -16 131 -16 62 -1 83 4 112
21 35 22 129 117 198 200 43 52 98 87 215 136 213 88 245 132 260 351 10 144
26 195 106 327 117 192 117 242 3 432 -84 140 -100 189 -109 337 -14 214 -47
257 -268 349 -118 49 -161 76 -207 132 -78 94 -173 187 -208 204 -45 21 -159
21 -235 0 -111 -31 -136 -36 -197 -36 -34 0 -81 5 -104 11 -163 43 -224 51
-287 39z m1171 -1226 l0 -275 31 -11 c26 -9 30 -14 24 -37 -9 -34 -21 -41 -80
-41 -27 0 -60 -3 -72 -6 -16 -4 -29 1 -45 19 l-23 25 -30 -24 c-66 -53 -183
-13 -231 78 -19 37 -18 141 2 179 35 68 125 126 212 137 52 6 57 9 60 34 2 20
-6 35 -33 59 -23 21 -35 40 -33 54 4 28 119 84 176 84 l42 1 0 -276z m-1148
209 c104 -41 139 -133 78 -203 -16 -19 -29 -39 -30 -44 0 -5 18 -28 39 -51 23
-25 43 -58 46 -78 14 -72 -49 -144 -165 -188 -51 -20 -67 -21 -215 -14 -157 6
-174 10 -175 42 0 7 16 28 35 48 l35 35 -2 187 -3 187 -31 8 c-39 10 -50 35
-28 59 13 14 35 19 98 22 221 9 275 7 318 -10z m358 -298 c0 -99 3 -127 16
-139 18 -19 16 -19 48 -6 24 9 26 15 26 64 0 50 -3 57 -31 76 -23 17 -29 29
-27 49 2 21 15 31 63 55 35 16 79 29 105 30 l45 1 5 -158 c5 -155 5 -158 29
-170 32 -16 35 -29 14 -55 -16 -19 -29 -22 -103 -23 -75 -1 -86 1 -98 20 l-14
21 -30 -25 c-49 -42 -133 -31 -182 24 -16 18 -21 40 -24 114 -3 88 -5 93 -34
118 -50 45 -35 72 62 113 126 52 130 49 130 -109z"/>
<path d="M3093 2519 c-28 -10 -37 -46 -29 -107 8 -58 28 -76 76 -67 19 4 38 9
42 11 13 8 8 118 -6 136 -18 24 -57 37 -83 27z"/>
<path d="M2012 2633 l3 -88 39 2 c43 3 63 17 66 48 8 82 -18 125 -76 125 l-35
0 3 -87z"/>
<path d="M2012 2393 l3 -78 38 -9 c54 -14 91 15 95 72 4 59 -29 92 -93 92
l-46 0 3 -77z"/>
</g>
</svg>
